# File created by Blade
# Date/Time:  Mon Sep 22 16:45:27 2014
# Frame Rate: 120.000 fps
#------------------------------------------------------
:FULLY-SPECIFIED
:DEGREES
3105
root 5.095185 39.759610 0.372653 24.049104 4.100741 50.049604
RightUpLeg -19.199834 -24.583051 -41.278643
RightLeg 19.319261 -0.000000 -0.000000
RightFoot -21.005165 -11.768476 15.308077
RightToeBase 7.975582 -0.000000 -0.000000
LeftUpLeg -24.590910 -3.999614 31.499504
LeftLeg 130.732513 -0.000000 -0.000000
LeftFoot 35.263619 7.962698 -24.222455
LeftToeBase -2.308567 -0.000000 0.000000
Spine 5.944241 13.682344 -21.933570
RightShoulder 0.063383 -11.661591 -28.453743
RightArm -12.438716 56.456297 41.894101
RightForeArm -7.543495 -0.000000 145.532756
RightHand -6.122376 -0.000000 -24.841736
RightHandThumb1 -24.326973 -0.000000 -32.862282
LeftShoulder -34.436082 28.362839 -10.757809
LeftArm 22.323737 -49.338627 -72.370227
LeftForeArm 16.725188 -0.000000 46.965671
LeftHand -31.830473 -0.000000 60.734134
LeftHandThumb1 -26.253704 0.000000 33.147579
Head 3.730823 -22.979559 -29.405411
3106
root 5.089987 39.751110 0.372741 23.932527 4.064906 49.921445
RightUpLeg -19.241063 -24.740222 -41.139238
RightLeg 19.434623 -0.000000 -0.000000
RightFoot -21.072671 -11.336024 15.488696
RightToeBase 8.068107 -0.000000 -0.000000
LeftUpLeg -24.616169 -3.662510 31.572783
LeftLeg 130.694189 -0.000000 -0.000000
LeftFoot 35.414323 7.811856 -24.310535
LeftToeBase -2.312955 -0.000000 0.000000
Spine 5.972055 13.817267 -21.815591
RightShoulder 0.046364 -11.592718 -28.388914
RightArm -12.576018 56.513932 41.785772
RightForeArm -7.761623 -0.000000 145.519781
RightHand -6.361533 -0.000000 -24.578743
RightHandThumb1 -24.326973 -0.000000 -32.862282
LeftShoulder -34.484657 28.483071 -10.739793
LeftArm 22.665861 -49.400193 -72.597449
LeftForeArm 16.335763 0.000000 46.529606
LeftHand -31.805908 -0.000000 60.076885
LeftHandThumb1 -26.253704 0.000000 33.147579
Head 3.661140 -23.087415 -29.065169
3107
root 5.084022 39.742147 0.372466 23.823529 4.031000 49.796038
RightUpLeg -19.293387 -24.922977 -40.999051
RightLeg 19.563438 -0.000000 -0.000000
RightFoot -21.164906 -10.851239 15.704408
RightToeBase 8.227796 -0.000000 -0.000000
LeftUpLeg -24.636642 -3.463691 31.681840
LeftLeg 130.657415 -0.000000 -0.000000
LeftFoot 35.518635 7.694813 -24.370733
LeftToeBase -2.248287 -0.000000 0.000000
Spine 5.986475 13.944168 -21.697227
RightShoulder 0.038927 -11.586835 -28.333972
RightArm -12.723178 56.608042 41.681677
RightForeArm -7.683097 -0.000000 145.524776
RightHand -6.226542 -0.000000 -24.746293
RightHandThumb1 -24.326973 -0.000000 -32.862282
LeftShoulder -34.272153 28.423425 -10.568352
LeftArm 22.405569 -49.537087 -72.380517
LeftForeArm 15.925912 -0.000000 46.144799
LeftHand -31.958231 -0.000000 59.890093
LeftHandThumb1 -26.253704 0.000000 33.147579
Head 3.583481 -23.188788 -28.762150
3108
root 5.078221 39.731689 0.372545 23.717394 3.992234 49.671741
RightUpLeg -19.341176 -25.071262 -40.863624
RightLeg 19.669981 -0.000000 -0.000000
RightFoot -21.266316 -10.496230 15.874575
RightToeBase 8.201729 -0.000000 -0.000000
LeftUpLeg -24.618721 -3.404146 31.835848
LeftLeg 130.628929 -0.000000 -0.000000
LeftFoot 35.566742 7.546820 -24.381789
LeftToeBase -2.563283 -0.000000 0.000000
Spine 6.011776 14.050990 -21.607373
RightShoulder 0.027101 -11.603804 -28.250638
RightArm -12.821884 56.681188 41.587882
RightForeArm -7.918335 -0.000000 145.508062
RightHand -6.412037 -0.000000 -24.613887
RightHandThumb1 -24.326973 -0.000000 -32.862282
LeftShoulder -34.227933 28.466970 -10.503548
LeftArm 22.544694 -49.684859 -72.513935
LeftForeArm 15.546414 0.000000 45.735941
LeftHand -31.944077 -0.000000 59.405699
LeftHandThumb1 -26.253704 0.000000 33.147579
Head 3.419476 -23.388008 -28.420574
3109
root 5.073760 39.722830 0.374232 23.593919 3.962476 49.572413
RightUpLeg -19.341409 -25.165741 -40.777125
RightLeg 19.772017 -0.000000 -0.000000
RightFoot -21.350918 -10.164009 16.062001
RightToeBase 8.155540 -0.000000 -0.000000
LeftUpLeg -24.575863 -3.507717 31.995011
LeftLeg 130.592400 -0.000000 -0.000000
LeftFoot 35.565840 7.500465 -24.452102
LeftToeBase -2.403515 -0.000000 0.000000
Spine 6.055791 14.136513 -21.525643
RightShoulder 0.020211 -11.668639 -28.183795
RightArm -12.848116 56.783166 41.569933
RightForeArm -7.959510 -0.000000 145.517889
RightHand -6.319691 -0.000000 -24.822975
RightHandThumb1 -24.326973 -0.000000 -32.862282
LeftShoulder -34.149120 28.499017 -10.432290
LeftArm 22.614076 -49.825179 -72.618836
LeftForeArm 15.217022 0.000000 45.334916
LeftHand -31.948288 -0.000000 59.075250
LeftHandThumb1 -26.253704 0.000000 33.147579
Head 3.294891 -23.491209 -28.144147
3110
root 5.070668 39.714832 0.375693 23.472973 3.931413 49.482919
RightUpLeg -19.338691 -25.266628 -40.703651
RightLeg 19.863643 -0.000000 -0.000000
RightFoot -21.384600 -9.859137 16.185612
RightToeBase 7.949287 -0.000000 -0.000000
LeftUpLeg -24.522186 -3.741072 32.162620
LeftLeg 130.539122 -0.000000 -0.000000
LeftFoot 35.624958 7.429476 -24.405210
LeftToeBase -2.522915 -0.000000 0.000000
Spine 6.102069 14.199275 -21.445470
RightShoulder 0.027281 -11.694948 -28.135997
RightArm -12.940026 56.838317 41.489427
RightForeArm -7.921972 -0.000000 145.542372
RightHand -6.243718 -0.000000 -24.895863
RightHandThumb1 -24.326973 -0.000000 -32.862282
LeftShoulder -34.037187 28.483133 -10.340332
LeftArm 22.529116 -49.976690 -72.645559
LeftForeArm 14.867216 -0.000000 44.994713
LeftHand -31.856316 -0.000000 58.294382
LeftHandThumb1 -26.253704 0.000000 33.147579
Head 3.130718 -23.581165 -27.863632
3111
root 5.070182 39.708368 0.377742 23.367563 3.898196 49.393759
RightUpLeg -19.342774 -25.388246 -40.620410
RightLeg 19.939089 -0.000000 -0.000000
RightFoot -21.403300 -9.589360 16.253661
RightToeBase 7.941375 -0.000000 -0.000000
LeftUpLeg -24.461387 -4.097058 32.352715
LeftLeg 130.494383 -0.000000 -0.000000
LeftFoot 35.738414 7.310554 -24.390212
LeftToeBase -2.671729 -0.000000 0.000000
Spine 6.104444 14.253540 -21.362616
RightShoulder 0.037944 -11.727048 -28.079308
RightArm -12.990733 56.867123 41.411409
RightForeArm -7.933004 -0.000000 145.564543
RightHand -6.293272 0.000000 -24.818543
RightHandThumb1 -24.326973 -0.000000 -32.862282
LeftShoulder -33.909377 28.478949 -10.243775
LeftArm 22.377374 -50.076323 -72.646191
LeftForeArm 14.506689 0.000000 44.673541
LeftHand -31.825812 -0.000000 58.361340
LeftHandThumb1 -26.253704 0.000000 33.147579
Head 3.060903 -23.591690 -27.682871
3112
root 5.071677 39.705202 0.377793 23.286761 3.836497 49.338635
RightUpLeg -19.366208 -25.484254 -40.579160
RightLeg 19.987388 -0.000000 -0.000000
RightFoot -21.396347 -9.323627 16.359094
RightToeBase 8.020996 -0.000000 -0.000000
LeftUpLeg -24.406134 -4.510257 32.518196
LeftLeg 130.451008 -0.000000 -0.000000
LeftFoot 35.755403 7.180813 -24.338406
LeftToeBase -2.539814 -0.000000 0.000000
Spine 6.090518 14.304348 -21.349672
RightShoulder 0.015201 -11.760686 -27.997862
RightArm -12.980006 56.824297 41.358895
RightForeArm -7.920437 -0.000000 145.589292
RightHand -6.290084 -0.000000 -24.909713
RightHandThumb1 -24.326973 -0.000000 -32.862282
LeftShoulder -33.801734 28.420648 -10.133537
LeftArm 22.196659 -50.166281 -72.633606
LeftForeArm 14.300502 -0.000000 44.381409
LeftHand -31.888453 0.000000 58.211227
LeftHandThumb1 -26.253704 0.000000 33.147579
Head 2.947308 -23.687430 -27.494356
3113
root 5.075390 39.702458 0.380538 23.203438 3.785283 49.254056
RightUpLeg -19.365324 -25.593690 -40.501562
RightLeg 20.004040 -0.000000 -0.000000
RightFoot -21.340435 -9.061561 16.654026
RightToeBase 7.816832 -0.000000 -0.000000
LeftUpLeg -24.310370 -5.039347 32.725452
LeftLeg 130.407771 -0.000000 -0.000000
LeftFoot 35.733716 7.012417 -24.347771
LeftToeBase -2.527277 -0.000000 0.000000
Spine 6.039665 14.318018 -21.277084
RightShoulder 0.063047 -11.814507 -27.958766
RightArm -12.945083 56.761617 41.325930
RightForeArm -8.091498 -0.000000 145.624946
RightHand -6.500902 -0.000000 -24.794329
RightHandThumb1 -24.326973 -0.000000 -32.862282
LeftShoulder -33.756550 28.421404 -10.112795
LeftArm 22.157240 -50.287267 -72.763801
LeftForeArm 14.115739 -0.000000 44.083553
LeftHand -31.797499 -0.000000 58.071807
LeftHandThumb1 -26.253704 0.000000 33.147579
Head 2.949781 -23.586805 -27.407755
3114
root 5.081787 39.704149 0.381401 23.145108 3.689447 49.206672
RightUpLeg -19.408768 -25.706078 -40.462434
RightLeg 19.994501 -0.000000 -0.000000
RightFoot -21.186505 -8.826532 16.892271
RightToeBase 7.662380 -0.000000 -0.000000
LeftUpLeg -24.224579 -5.618637 32.870262
LeftLeg 130.342200 -0.000000 -0.000000
LeftFoot 35.825980 6.828435 -24.288374
LeftToeBase -2.628366 -0.000000 0.000000
Spine 5.952806 14.358466 -21.267771
RightShoulder 0.071141 -11.810309 -27.900022
RightArm -12.949659 56.650070 41.232033
RightForeArm -7.936225 -0.000000 145.655245
RightHand -6.209924 0.000000 -24.953804
RightHandThumb1 -24.326973 -0.000000 -32.862282
LeftShoulder -33.693872 28.412046 -10.089470
LeftArm 22.089480 -50.397097 -72.862433
LeftForeArm 13.961969 -0.000000 43.814172
LeftHand -31.883990 -0.000000 57.955912
LeftHandThumb1 -26.253704 0.000000 33.147579
Head 2.967573 -23.555968 -27.364783
